<mxfile host="65bd71144e">
    <diagram id="dduAflSlmA2EmJKSDYuZ" name="main">
        <mxGraphModel dx="535" dy="475" grid="1" gridSize="10" guides="1" tooltips="1" connect="1" arrows="1" fold="1" page="1" pageScale="1" pageWidth="827" pageHeight="1169" background="#ffffff" math="0" shadow="0">
            <root>
                <mxCell id="0"/>
                <mxCell id="1" parent="0"/>
                <mxCell id="7" style="edgeStyle=none;html=1;entryX=0.5;entryY=0;entryDx=0;entryDy=0;fontFamily=Times New Roman;fontSize=14;fontColor=#000000;strokeColor=#000000;strokeWidth=3;" edge="1" parent="1" source="3">
                    <mxGeometry relative="1" as="geometry">
                        <mxPoint x="300" y="160" as="targetPoint"/>
                    </mxGeometry>
                </mxCell>
                <mxCell id="3" value="Начало&lt;div style=&quot;text-align: justify;&quot;&gt;&lt;/div&gt;" style="ellipse;whiteSpace=wrap;html=1;strokeColor=#000000;fontFamily=Times New Roman;fillColor=#FFFFFF;fontSize=14;fontColor=#000000;" vertex="1" parent="1">
                    <mxGeometry x="240" y="40" width="120" height="80" as="geometry"/>
                </mxCell>
                <mxCell id="9" style="edgeStyle=none;html=1;strokeColor=#000000;strokeWidth=3;fontFamily=Times New Roman;fontSize=14;fontColor=#000000;" edge="1" parent="1">
                    <mxGeometry relative="1" as="geometry">
                        <mxPoint x="299.69999999999993" y="220" as="sourcePoint"/>
                        <mxPoint x="299.29999999999995" y="260" as="targetPoint"/>
                    </mxGeometry>
                </mxCell>
                <mxCell id="pNEts3Y4bDYNDHWkMlwr-55" value="" style="edgeStyle=none;html=1;strokeColor=#000000;strokeWidth=3;fontFamily=Times New Roman;fontSize=14;fontColor=#000000;entryX=0.5;entryY=0;entryDx=0;entryDy=0;" edge="1" parent="1" source="10" target="13">
                    <mxGeometry relative="1" as="geometry"/>
                </mxCell>
                <mxCell id="10" value="*mas = get_mem_array(length)" style="shape=process;whiteSpace=wrap;html=1;backgroundOutline=1;strokeColor=#000000;fontFamily=Times New Roman;fontSize=14;fontColor=#000000;fillColor=#FFFFFF;" vertex="1" parent="1">
                    <mxGeometry x="184" y="360" width="226" height="60" as="geometry"/>
                </mxCell>
                <mxCell id="15" style="edgeStyle=none;html=1;strokeColor=#000000;strokeWidth=3;fontFamily=Times New Roman;fontSize=14;fontColor=#000000;" edge="1" parent="1" source="13">
                    <mxGeometry relative="1" as="geometry">
                        <mxPoint x="299" y="750" as="targetPoint"/>
                    </mxGeometry>
                </mxCell>
                <mxCell id="13" value="switch((enum Choices)choice)" style="rhombus;whiteSpace=wrap;html=1;strokeColor=#000000;fontFamily=Times New Roman;fontSize=14;fontColor=#000000;fillColor=#FFFFFF;" vertex="1" parent="1">
                    <mxGeometry x="189" y="460" width="220" height="80" as="geometry"/>
                </mxCell>
                <mxCell id="18" value="" style="endArrow=classic;html=1;strokeColor=#000000;strokeWidth=3;fontFamily=Times New Roman;fontSize=14;fontColor=#000000;" edge="1" parent="1">
                    <mxGeometry width="50" height="50" relative="1" as="geometry">
                        <mxPoint x="300" y="710" as="sourcePoint"/>
                        <mxPoint x="450" y="710" as="targetPoint"/>
                        <Array as="points"/>
                    </mxGeometry>
                </mxCell>
                <mxCell id="19" value="case random choice" style="text;html=1;align=center;verticalAlign=middle;resizable=0;points=[];autosize=1;strokeColor=none;fillColor=none;fontSize=14;fontFamily=Times New Roman;fontColor=#000000;" vertex="1" parent="1">
                    <mxGeometry x="300" y="535" width="130" height="30" as="geometry"/>
                </mxCell>
                <mxCell id="21" value="default" style="text;html=1;align=center;verticalAlign=middle;resizable=0;points=[];autosize=1;strokeColor=none;fillColor=none;fontSize=14;fontFamily=Times New Roman;fontColor=#000000;" vertex="1" parent="1">
                    <mxGeometry x="329" y="680" width="60" height="30" as="geometry"/>
                </mxCell>
                <mxCell id="22" value="random_array(*mas, length)" style="shape=process;whiteSpace=wrap;html=1;backgroundOutline=1;strokeColor=#000000;fontFamily=Times New Roman;fontSize=14;fontColor=#000000;fillColor=#FFFFFF;" vertex="1" parent="1">
                    <mxGeometry x="450" y="540" width="210" height="60" as="geometry"/>
                </mxCell>
                <mxCell id="24" value="" style="endArrow=classic;html=1;strokeColor=#000000;strokeWidth=3;fontFamily=Times New Roman;fontSize=14;fontColor=#000000;entryX=0;entryY=0.5;entryDx=0;entryDy=0;" edge="1" parent="1" target="22">
                    <mxGeometry width="50" height="50" relative="1" as="geometry">
                        <mxPoint x="300" y="570" as="sourcePoint"/>
                        <mxPoint x="460" y="530" as="targetPoint"/>
                    </mxGeometry>
                </mxCell>
                <mxCell id="20" value="case user choice" style="text;html=1;align=center;verticalAlign=middle;resizable=0;points=[];autosize=1;strokeColor=none;fillColor=none;fontSize=14;fontFamily=Times New Roman;fontColor=#000000;" vertex="1" parent="1">
                    <mxGeometry x="310" y="610" width="110" height="30" as="geometry"/>
                </mxCell>
                <mxCell id="26" value="user_array(*mas, length)" style="shape=process;whiteSpace=wrap;html=1;backgroundOutline=1;strokeColor=#000000;fontFamily=Times New Roman;fontSize=14;fontColor=#000000;fillColor=#FFFFFF;" vertex="1" parent="1">
                    <mxGeometry x="450" y="610" width="210" height="60" as="geometry"/>
                </mxCell>
                <mxCell id="27" value="" style="endArrow=classic;html=1;strokeColor=#000000;strokeWidth=3;fontFamily=Times New Roman;fontSize=14;fontColor=#000000;entryX=0;entryY=0.5;entryDx=0;entryDy=0;" edge="1" parent="1" target="26">
                    <mxGeometry width="50" height="50" relative="1" as="geometry">
                        <mxPoint x="300" y="640" as="sourcePoint"/>
                        <mxPoint x="460" y="520" as="targetPoint"/>
                    </mxGeometry>
                </mxCell>
                <mxCell id="34" style="edgeStyle=none;html=1;exitX=0.5;exitY=1;exitDx=0;exitDy=0;entryX=0.5;entryY=0;entryDx=0;entryDy=0;strokeColor=#000000;strokeWidth=3;fontFamily=Times New Roman;fontSize=14;fontColor=#000000;" edge="1" parent="1" source="30" target="32">
                    <mxGeometry relative="1" as="geometry"/>
                </mxCell>
                <mxCell id="30" value="number" style="shape=parallelogram;perimeter=parallelogramPerimeter;whiteSpace=wrap;html=1;fixedSize=1;strokeColor=#000000;fontFamily=Times New Roman;fontSize=14;fontColor=#000000;fillColor=#FFFFFF;" vertex="1" parent="1">
                    <mxGeometry x="190" y="750" width="220" height="60" as="geometry"/>
                </mxCell>
                <mxCell id="35" style="edgeStyle=none;html=1;exitX=0.5;exitY=1;exitDx=0;exitDy=0;entryX=0.5;entryY=0;entryDx=0;entryDy=0;strokeColor=#000000;strokeWidth=3;fontFamily=Times New Roman;fontSize=14;fontColor=#000000;" edge="1" parent="1" source="32" target="33">
                    <mxGeometry relative="1" as="geometry"/>
                </mxCell>
                <mxCell id="32" value="first_task(*mas, length, number)" style="shape=parallelogram;perimeter=parallelogramPerimeter;whiteSpace=wrap;html=1;fixedSize=1;strokeColor=#000000;fontFamily=Times New Roman;fontSize=14;fontColor=#000000;fillColor=#FFFFFF;" vertex="1" parent="1">
                    <mxGeometry x="190" y="840" width="220" height="60" as="geometry"/>
                </mxCell>
                <mxCell id="33" value="second_task(*mas, length)" style="shape=parallelogram;perimeter=parallelogramPerimeter;whiteSpace=wrap;html=1;fixedSize=1;strokeColor=#000000;fontFamily=Times New Roman;fontSize=14;fontColor=#000000;fillColor=#FFFFFF;" vertex="1" parent="1">
                    <mxGeometry x="190" y="930" width="220" height="60" as="geometry"/>
                </mxCell>
                <mxCell id="36" value="third_task(*mas, length) == 0" style="rhombus;whiteSpace=wrap;html=1;strokeColor=#000000;fontFamily=Times New Roman;fontSize=14;fontColor=#000000;fillColor=#FFFFFF;" vertex="1" parent="1">
                    <mxGeometry x="200.5" y="1020" width="199" height="80" as="geometry"/>
                </mxCell>
                <mxCell id="37" value="" style="endArrow=classic;html=1;strokeColor=#000000;strokeWidth=3;fontFamily=Times New Roman;fontSize=14;fontColor=#000000;exitX=0.5;exitY=1;exitDx=0;exitDy=0;entryX=0.5;entryY=0;entryDx=0;entryDy=0;" edge="1" parent="1" source="33" target="36">
                    <mxGeometry width="50" height="50" relative="1" as="geometry">
                        <mxPoint x="310" y="1040" as="sourcePoint"/>
                        <mxPoint x="360" y="990" as="targetPoint"/>
                    </mxGeometry>
                </mxCell>
                <mxCell id="39" value="" style="endArrow=none;html=1;strokeColor=#000000;strokeWidth=3;fontFamily=Times New Roman;fontSize=14;fontColor=#000000;exitX=1;exitY=0.5;exitDx=0;exitDy=0;" edge="1" parent="1" source="36">
                    <mxGeometry width="50" height="50" relative="1" as="geometry">
                        <mxPoint x="340" y="1000" as="sourcePoint"/>
                        <mxPoint x="480" y="1060" as="targetPoint"/>
                    </mxGeometry>
                </mxCell>
                <mxCell id="40" value="" style="endArrow=classic;html=1;strokeColor=#000000;strokeWidth=3;fontFamily=Times New Roman;fontSize=14;fontColor=#000000;entryX=0.5;entryY=0;entryDx=0;entryDy=0;" edge="1" parent="1" target="42">
                    <mxGeometry width="50" height="50" relative="1" as="geometry">
                        <mxPoint x="480" y="1060" as="sourcePoint"/>
                        <mxPoint x="480" y="1170" as="targetPoint"/>
                    </mxGeometry>
                </mxCell>
                <mxCell id="41" value="true" style="text;html=1;align=center;verticalAlign=middle;resizable=0;points=[];autosize=1;strokeColor=none;fillColor=none;fontSize=14;fontFamily=Times New Roman;fontColor=#000000;" vertex="1" parent="1">
                    <mxGeometry x="400" y="1030" width="50" height="30" as="geometry"/>
                </mxCell>
                <mxCell id="42" value="&quot;Third task: Not found&quot;" style="shape=parallelogram;perimeter=parallelogramPerimeter;whiteSpace=wrap;html=1;fixedSize=1;strokeColor=#000000;fontFamily=Times New Roman;fontSize=14;fontColor=#000000;fillColor=#FFFFFF;" vertex="1" parent="1">
                    <mxGeometry x="399.5" y="1180" width="160" height="60" as="geometry"/>
                </mxCell>
                <mxCell id="43" value="" style="endArrow=classic;html=1;strokeColor=#000000;strokeWidth=3;fontFamily=Times New Roman;fontSize=14;fontColor=#000000;exitX=0.5;exitY=1;exitDx=0;exitDy=0;" edge="1" parent="1" source="36">
                    <mxGeometry width="50" height="50" relative="1" as="geometry">
                        <mxPoint x="340" y="1090" as="sourcePoint"/>
                        <mxPoint x="300" y="1180" as="targetPoint"/>
                    </mxGeometry>
                </mxCell>
                <mxCell id="44" value="false" style="text;html=1;align=center;verticalAlign=middle;resizable=0;points=[];autosize=1;strokeColor=none;fillColor=none;fontSize=14;fontFamily=Times New Roman;fontColor=#000000;" vertex="1" parent="1">
                    <mxGeometry x="240" y="1120" width="50" height="30" as="geometry"/>
                </mxCell>
                <mxCell id="45" value="third_task(*mas, length)" style="shape=parallelogram;perimeter=parallelogramPerimeter;whiteSpace=wrap;html=1;fixedSize=1;strokeColor=#000000;fontFamily=Times New Roman;fontSize=14;fontColor=#000000;fillColor=#FFFFFF;" vertex="1" parent="1">
                    <mxGeometry x="214" y="1180" width="170" height="60" as="geometry"/>
                </mxCell>
                <mxCell id="47" value="" style="endArrow=classic;html=1;strokeColor=#000000;strokeWidth=3;fontFamily=Times New Roman;fontSize=14;fontColor=#000000;exitX=0.5;exitY=1;exitDx=0;exitDy=0;" edge="1" parent="1" source="45">
                    <mxGeometry width="50" height="50" relative="1" as="geometry">
                        <mxPoint x="330" y="1230" as="sourcePoint"/>
                        <mxPoint x="299" y="1320" as="targetPoint"/>
                    </mxGeometry>
                </mxCell>
                <mxCell id="48" value="" style="endArrow=none;html=1;strokeColor=#000000;strokeWidth=3;fontFamily=Times New Roman;fontSize=14;fontColor=#000000;exitX=0.5;exitY=1;exitDx=0;exitDy=0;" edge="1" parent="1" source="42">
                    <mxGeometry width="50" height="50" relative="1" as="geometry">
                        <mxPoint x="330" y="1230" as="sourcePoint"/>
                        <mxPoint x="480" y="1280" as="targetPoint"/>
                    </mxGeometry>
                </mxCell>
                <mxCell id="49" value="" style="endArrow=classic;html=1;strokeColor=#000000;strokeWidth=3;fontFamily=Times New Roman;fontSize=14;fontColor=#000000;" edge="1" parent="1">
                    <mxGeometry width="50" height="50" relative="1" as="geometry">
                        <mxPoint x="480" y="1280" as="sourcePoint"/>
                        <mxPoint x="300" y="1280" as="targetPoint"/>
                    </mxGeometry>
                </mxCell>
                <mxCell id="50" value="free_array(*mas)" style="shape=process;whiteSpace=wrap;html=1;backgroundOutline=1;strokeColor=#000000;fontFamily=Times New Roman;fontSize=14;fontColor=#000000;fillColor=#FFFFFF;" vertex="1" parent="1">
                    <mxGeometry x="235" y="1320" width="130" height="60" as="geometry"/>
                </mxCell>
                <mxCell id="52" value="" style="endArrow=classic;html=1;strokeColor=#000000;strokeWidth=3;fontFamily=Times New Roman;fontSize=14;fontColor=#000000;exitX=0.5;exitY=1;exitDx=0;exitDy=0;entryX=0.5;entryY=0;entryDx=0;entryDy=0;" edge="1" parent="1" source="50">
                    <mxGeometry width="50" height="50" relative="1" as="geometry">
                        <mxPoint x="330" y="1330" as="sourcePoint"/>
                        <mxPoint x="300" y="1420" as="targetPoint"/>
                    </mxGeometry>
                </mxCell>
                <mxCell id="b3Zedy9EDPFAXGnqCpEN-53" value="enum Choices" style="swimlane;whiteSpace=wrap;html=1;strokeColor=#000000;fontFamily=Times New Roman;fontSize=14;fontColor=#000000;fillColor=#FFFFFF;" vertex="1" parent="1">
                    <mxGeometry x="470" y="290" width="140" height="110" as="geometry"/>
                </mxCell>
                <mxCell id="b3Zedy9EDPFAXGnqCpEN-54" value="random_choice = 1" style="text;html=1;align=center;verticalAlign=middle;resizable=0;points=[];autosize=1;strokeColor=none;fillColor=none;fontSize=14;fontFamily=Times New Roman;fontColor=#000000;" vertex="1" parent="b3Zedy9EDPFAXGnqCpEN-53">
                    <mxGeometry y="35" width="130" height="30" as="geometry"/>
                </mxCell>
                <mxCell id="b3Zedy9EDPFAXGnqCpEN-55" value="user_choice = 2" style="text;html=1;align=center;verticalAlign=middle;resizable=0;points=[];autosize=1;strokeColor=none;fillColor=none;fontSize=14;fontFamily=Times New Roman;fontColor=#000000;" vertex="1" parent="b3Zedy9EDPFAXGnqCpEN-53">
                    <mxGeometry x="9.5" y="65" width="110" height="30" as="geometry"/>
                </mxCell>
                <mxCell id="b3Zedy9EDPFAXGnqCpEN-56" value="" style="endArrow=none;html=1;strokeColor=#000000;strokeWidth=3;fontFamily=Times New Roman;fontSize=14;fontColor=#000000;entryX=0.5;entryY=1;entryDx=0;entryDy=0;" edge="1" parent="1" target="b3Zedy9EDPFAXGnqCpEN-53">
                    <mxGeometry width="50" height="50" relative="1" as="geometry">
                        <mxPoint x="540" y="430" as="sourcePoint"/>
                        <mxPoint x="450" y="440" as="targetPoint"/>
                    </mxGeometry>
                </mxCell>
                <mxCell id="b3Zedy9EDPFAXGnqCpEN-57" value="" style="endArrow=classic;html=1;strokeColor=#000000;strokeWidth=3;fontFamily=Times New Roman;fontSize=14;fontColor=#000000;" edge="1" parent="1">
                    <mxGeometry width="50" height="50" relative="1" as="geometry">
                        <mxPoint x="540" y="430" as="sourcePoint"/>
                        <mxPoint x="300" y="430" as="targetPoint"/>
                    </mxGeometry>
                </mxCell>
                <mxCell id="1TIcCexqWjtkCrMtU1Bt-52" value="0" style="ellipse;whiteSpace=wrap;html=1;strokeColor=#000000;fontFamily=Times New Roman;fontSize=14;fontColor=#000000;fillColor=#FFFFFF;" vertex="1" parent="1">
                    <mxGeometry x="240" y="1420" width="120" height="80" as="geometry"/>
                </mxCell>
                <mxCell id="1TIcCexqWjtkCrMtU1Bt-53" value="1" style="ellipse;whiteSpace=wrap;html=1;strokeColor=#000000;fontFamily=Times New Roman;fontSize=14;fontColor=#000000;fillColor=#FFFFFF;" vertex="1" parent="1">
                    <mxGeometry x="450" y="670" width="120" height="80" as="geometry"/>
                </mxCell>
                <mxCell id="pNEts3Y4bDYNDHWkMlwr-52" value="length = get_size_t()" style="shape=process;whiteSpace=wrap;html=1;backgroundOutline=1;strokeColor=#000000;fontFamily=Times New Roman;fontSize=14;fontColor=#000000;fillColor=#FFFFFF;" vertex="1" parent="1">
                    <mxGeometry x="215" y="160" width="170" height="60" as="geometry"/>
                </mxCell>
                <mxCell id="pNEts3Y4bDYNDHWkMlwr-54" value="" style="edgeStyle=none;html=1;strokeColor=#000000;strokeWidth=3;fontFamily=Times New Roman;fontSize=14;fontColor=#000000;" edge="1" parent="1" source="pNEts3Y4bDYNDHWkMlwr-53" target="10">
                    <mxGeometry relative="1" as="geometry"/>
                </mxCell>
                <mxCell id="pNEts3Y4bDYNDHWkMlwr-53" value="choice = get_int()" style="shape=process;whiteSpace=wrap;html=1;backgroundOutline=1;strokeColor=#000000;fontFamily=Times New Roman;fontSize=14;fontColor=#000000;fillColor=#FFFFFF;" vertex="1" parent="1">
                    <mxGeometry x="184" y="260" width="226" height="60" as="geometry"/>
                </mxCell>
            </root>
        </mxGraphModel>
    </diagram>
    <diagram id="u3yC7wwah0V7eCWNw64F" name="get_mem_array">
        <mxGraphModel dx="535" dy="475" grid="1" gridSize="10" guides="1" tooltips="1" connect="1" arrows="1" fold="1" page="1" pageScale="1" pageWidth="827" pageHeight="1169" background="#ffffff" math="0" shadow="0">
            <root>
                <mxCell id="0"/>
                <mxCell id="1" parent="0"/>
                <mxCell id="7kKWyREf13AJe1QysBUn-3" value="" style="edgeStyle=none;html=1;strokeColor=#000000;strokeWidth=3;fontFamily=Times New Roman;fontSize=14;fontColor=#000000;" edge="1" parent="1" source="7kKWyREf13AJe1QysBUn-1" target="7kKWyREf13AJe1QysBUn-2">
                    <mxGeometry relative="1" as="geometry"/>
                </mxCell>
                <mxCell id="7kKWyREf13AJe1QysBUn-1" value="length" style="ellipse;whiteSpace=wrap;html=1;strokeColor=#000000;fontFamily=Times New Roman;fontSize=14;fontColor=#000000;fillColor=#FFFFFF;" vertex="1" parent="1">
                    <mxGeometry x="200" y="40" width="120" height="80" as="geometry"/>
                </mxCell>
                <mxCell id="8zzSYr8SPr4C44vhaHoF-2" value="" style="edgeStyle=none;html=1;strokeColor=#000000;strokeWidth=3;fontFamily=Times New Roman;fontSize=14;fontColor=#000000;" edge="1" parent="1" source="7kKWyREf13AJe1QysBUn-2" target="8zzSYr8SPr4C44vhaHoF-1">
                    <mxGeometry relative="1" as="geometry"/>
                </mxCell>
                <mxCell id="7kKWyREf13AJe1QysBUn-2" value="*array = malloc(length * sizeof(int))" style="shape=process;whiteSpace=wrap;html=1;backgroundOutline=1;strokeColor=#000000;fontFamily=Times New Roman;fontSize=14;fontColor=#000000;fillColor=#FFFFFF;" vertex="1" parent="1">
                    <mxGeometry x="130" y="140" width="260" height="60" as="geometry"/>
                </mxCell>
                <mxCell id="8zzSYr8SPr4C44vhaHoF-1" value="NULL == array" style="rhombus;whiteSpace=wrap;html=1;strokeColor=#000000;fontFamily=Times New Roman;fontSize=14;fontColor=#000000;fillColor=#FFFFFF;" vertex="1" parent="1">
                    <mxGeometry x="165" y="230" width="190" height="80" as="geometry"/>
                </mxCell>
                <mxCell id="8zzSYr8SPr4C44vhaHoF-3" value="" style="endArrow=none;html=1;strokeColor=#000000;strokeWidth=3;fontFamily=Times New Roman;fontSize=14;fontColor=#000000;exitX=1;exitY=0.5;exitDx=0;exitDy=0;" edge="1" parent="1" source="8zzSYr8SPr4C44vhaHoF-1">
                    <mxGeometry width="50" height="50" relative="1" as="geometry">
                        <mxPoint x="250" y="320" as="sourcePoint"/>
                        <mxPoint x="440" y="270" as="targetPoint"/>
                    </mxGeometry>
                </mxCell>
                <mxCell id="8zzSYr8SPr4C44vhaHoF-4" value="" style="endArrow=classic;html=1;strokeColor=#000000;strokeWidth=3;fontFamily=Times New Roman;fontSize=14;fontColor=#000000;" edge="1" parent="1">
                    <mxGeometry width="50" height="50" relative="1" as="geometry">
                        <mxPoint x="440" y="270" as="sourcePoint"/>
                        <mxPoint x="440" y="360" as="targetPoint"/>
                    </mxGeometry>
                </mxCell>
                <mxCell id="8zzSYr8SPr4C44vhaHoF-5" value="true" style="text;html=1;align=center;verticalAlign=middle;resizable=0;points=[];autosize=1;strokeColor=none;fillColor=none;fontSize=14;fontFamily=Times New Roman;fontColor=#000000;" vertex="1" parent="1">
                    <mxGeometry x="365" y="235" width="50" height="30" as="geometry"/>
                </mxCell>
                <mxCell id="8zzSYr8SPr4C44vhaHoF-9" value="" style="edgeStyle=none;html=1;strokeColor=#000000;strokeWidth=3;fontFamily=Times New Roman;fontSize=14;fontColor=#000000;" edge="1" parent="1" source="8zzSYr8SPr4C44vhaHoF-6" target="8zzSYr8SPr4C44vhaHoF-8">
                    <mxGeometry relative="1" as="geometry"/>
                </mxCell>
                <mxCell id="8zzSYr8SPr4C44vhaHoF-6" value="errno = ENOMEM" style="shape=process;whiteSpace=wrap;html=1;backgroundOutline=1;strokeColor=#000000;fontFamily=Times New Roman;fontSize=14;fontColor=#000000;fillColor=#FFFFFF;" vertex="1" parent="1">
                    <mxGeometry x="365" y="360" width="150" height="60" as="geometry"/>
                </mxCell>
                <mxCell id="8zzSYr8SPr4C44vhaHoF-11" value="" style="edgeStyle=none;html=1;strokeColor=#000000;strokeWidth=3;fontFamily=Times New Roman;fontSize=14;fontColor=#000000;" edge="1" parent="1" source="8zzSYr8SPr4C44vhaHoF-8" target="8zzSYr8SPr4C44vhaHoF-10">
                    <mxGeometry relative="1" as="geometry"/>
                </mxCell>
                <mxCell id="8zzSYr8SPr4C44vhaHoF-8" value="perror(&quot;Error: &quot;)" style="shape=parallelogram;perimeter=parallelogramPerimeter;whiteSpace=wrap;html=1;fixedSize=1;strokeColor=#000000;fontFamily=Times New Roman;fontSize=14;fontColor=#000000;fillColor=#FFFFFF;" vertex="1" parent="1">
                    <mxGeometry x="360" y="460" width="160" height="60" as="geometry"/>
                </mxCell>
                <mxCell id="8zzSYr8SPr4C44vhaHoF-10" value="abort()" style="ellipse;whiteSpace=wrap;html=1;strokeColor=#000000;fontFamily=Times New Roman;fontSize=14;fontColor=#000000;fillColor=#FFFFFF;" vertex="1" parent="1">
                    <mxGeometry x="380" y="560" width="120" height="80" as="geometry"/>
                </mxCell>
                <mxCell id="8zzSYr8SPr4C44vhaHoF-12" value="" style="endArrow=classic;html=1;strokeColor=#000000;strokeWidth=3;fontFamily=Times New Roman;fontSize=14;fontColor=#000000;exitX=0.5;exitY=1;exitDx=0;exitDy=0;" edge="1" parent="1" source="8zzSYr8SPr4C44vhaHoF-1">
                    <mxGeometry width="50" height="50" relative="1" as="geometry">
                        <mxPoint x="290" y="490" as="sourcePoint"/>
                        <mxPoint x="260" y="440" as="targetPoint"/>
                    </mxGeometry>
                </mxCell>
                <mxCell id="8zzSYr8SPr4C44vhaHoF-13" value="array" style="ellipse;whiteSpace=wrap;html=1;strokeColor=#000000;fontFamily=Times New Roman;fontSize=14;fontColor=#000000;fillColor=#FFFFFF;" vertex="1" parent="1">
                    <mxGeometry x="200" y="440" width="120" height="80" as="geometry"/>
                </mxCell>
            </root>
        </mxGraphModel>
    </diagram>
    <diagram id="GC2nhb8O_OKE1YCj7fj9" name="random_array">
        <mxGraphModel dx="535" dy="475" grid="1" gridSize="10" guides="1" tooltips="1" connect="1" arrows="1" fold="1" page="1" pageScale="1" pageWidth="827" pageHeight="1169" background="#ffffff" math="0" shadow="0">
            <root>
                <mxCell id="0"/>
                <mxCell id="1" parent="0"/>
                <mxCell id="FZIqqEBbdKfMuZb5PTaa-4" value="" style="edgeStyle=none;html=1;strokeColor=#000000;strokeWidth=3;fontFamily=Times New Roman;fontSize=14;fontColor=#000000;" edge="1" parent="1" source="FZIqqEBbdKfMuZb5PTaa-1" target="FZIqqEBbdKfMuZb5PTaa-3">
                    <mxGeometry relative="1" as="geometry"/>
                </mxCell>
                <mxCell id="FZIqqEBbdKfMuZb5PTaa-1" value="*array, length" style="ellipse;whiteSpace=wrap;html=1;strokeColor=#000000;fontFamily=Times New Roman;fontSize=14;fontColor=#000000;fillColor=#FFFFFF;" vertex="1" parent="1">
                    <mxGeometry x="160" y="40" width="120" height="80" as="geometry"/>
                </mxCell>
                <mxCell id="FZIqqEBbdKfMuZb5PTaa-2" value="i &amp;lt; length" style="rhombus;whiteSpace=wrap;html=1;strokeColor=#000000;fontFamily=Times New Roman;fontSize=14;fontColor=#000000;fillColor=#FFFFFF;" vertex="1" parent="1">
                    <mxGeometry x="165" y="230" width="110" height="80" as="geometry"/>
                </mxCell>
                <mxCell id="FZIqqEBbdKfMuZb5PTaa-5" value="" style="edgeStyle=none;html=1;strokeColor=#000000;strokeWidth=3;fontFamily=Times New Roman;fontSize=14;fontColor=#000000;" edge="1" parent="1" source="FZIqqEBbdKfMuZb5PTaa-3" target="FZIqqEBbdKfMuZb5PTaa-2">
                    <mxGeometry relative="1" as="geometry"/>
                </mxCell>
                <mxCell id="FZIqqEBbdKfMuZb5PTaa-3" value="i = 0" style="shape=process;whiteSpace=wrap;html=1;backgroundOutline=1;strokeColor=#000000;fontFamily=Times New Roman;fontSize=14;fontColor=#000000;fillColor=#FFFFFF;" vertex="1" parent="1">
                    <mxGeometry x="110" y="150" width="220" height="60" as="geometry"/>
                </mxCell>
                <mxCell id="FZIqqEBbdKfMuZb5PTaa-6" value="" style="endArrow=classic;html=1;strokeColor=#000000;strokeWidth=3;fontFamily=Times New Roman;fontSize=14;fontColor=#000000;exitX=0.5;exitY=1;exitDx=0;exitDy=0;" edge="1" parent="1" source="FZIqqEBbdKfMuZb5PTaa-2">
                    <mxGeometry width="50" height="50" relative="1" as="geometry">
                        <mxPoint x="280" y="420" as="sourcePoint"/>
                        <mxPoint x="220" y="400" as="targetPoint"/>
                    </mxGeometry>
                </mxCell>
                <mxCell id="FZIqqEBbdKfMuZb5PTaa-7" value="true" style="text;html=1;align=center;verticalAlign=middle;resizable=0;points=[];autosize=1;strokeColor=none;fillColor=none;fontSize=14;fontFamily=Times New Roman;fontColor=#000000;" vertex="1" parent="1">
                    <mxGeometry x="160" y="330" width="50" height="30" as="geometry"/>
                </mxCell>
                <mxCell id="FZIqqEBbdKfMuZb5PTaa-10" value="" style="edgeStyle=none;html=1;strokeColor=#000000;strokeWidth=3;fontFamily=Times New Roman;fontSize=14;fontColor=#000000;" edge="1" parent="1" source="FZIqqEBbdKfMuZb5PTaa-8" target="FZIqqEBbdKfMuZb5PTaa-9">
                    <mxGeometry relative="1" as="geometry"/>
                </mxCell>
                <mxCell id="FZIqqEBbdKfMuZb5PTaa-8" value="array[i] = rand() % 200 - 100" style="shape=process;whiteSpace=wrap;html=1;backgroundOutline=1;strokeColor=#000000;fontFamily=Times New Roman;fontSize=14;fontColor=#000000;fillColor=#FFFFFF;" vertex="1" parent="1">
                    <mxGeometry x="110" y="400" width="215" height="60" as="geometry"/>
                </mxCell>
                <mxCell id="FZIqqEBbdKfMuZb5PTaa-9" value="i++" style="shape=process;whiteSpace=wrap;html=1;backgroundOutline=1;strokeColor=#000000;fontFamily=Times New Roman;fontSize=14;fontColor=#000000;fillColor=#FFFFFF;" vertex="1" parent="1">
                    <mxGeometry x="110" y="480" width="210" height="60" as="geometry"/>
                </mxCell>
                <mxCell id="FZIqqEBbdKfMuZb5PTaa-11" value="" style="endArrow=none;html=1;strokeColor=#000000;strokeWidth=3;fontFamily=Times New Roman;fontSize=14;fontColor=#000000;exitX=1;exitY=0.5;exitDx=0;exitDy=0;" edge="1" parent="1" source="FZIqqEBbdKfMuZb5PTaa-9">
                    <mxGeometry width="50" height="50" relative="1" as="geometry">
                        <mxPoint x="280" y="420" as="sourcePoint"/>
                        <mxPoint x="370" y="510" as="targetPoint"/>
                    </mxGeometry>
                </mxCell>
                <mxCell id="FZIqqEBbdKfMuZb5PTaa-13" value="" style="endArrow=none;html=1;strokeColor=#000000;strokeWidth=3;fontFamily=Times New Roman;fontSize=14;fontColor=#000000;" edge="1" parent="1">
                    <mxGeometry width="50" height="50" relative="1" as="geometry">
                        <mxPoint x="370" y="510" as="sourcePoint"/>
                        <mxPoint x="370" y="270" as="targetPoint"/>
                    </mxGeometry>
                </mxCell>
                <mxCell id="FZIqqEBbdKfMuZb5PTaa-14" value="" style="endArrow=classic;html=1;strokeColor=#000000;strokeWidth=3;fontFamily=Times New Roman;fontSize=14;fontColor=#000000;entryX=1;entryY=0.5;entryDx=0;entryDy=0;" edge="1" parent="1" target="FZIqqEBbdKfMuZb5PTaa-2">
                    <mxGeometry width="50" height="50" relative="1" as="geometry">
                        <mxPoint x="370" y="270" as="sourcePoint"/>
                        <mxPoint x="330" y="370" as="targetPoint"/>
                    </mxGeometry>
                </mxCell>
            </root>
        </mxGraphModel>
    </diagram>
    <diagram id="zMrEUnjuxy22pgAJR4XY" name="user_choice">
        <mxGraphModel dx="535" dy="475" grid="1" gridSize="10" guides="1" tooltips="1" connect="1" arrows="1" fold="1" page="1" pageScale="1" pageWidth="827" pageHeight="1169" background="#ffffff" math="0" shadow="0">
            <root>
                <mxCell id="0"/>
                <mxCell id="1" parent="0"/>
                <mxCell id="A7lQrGsJFIJaW99qyyGC-4" value="" style="edgeStyle=none;html=1;strokeColor=#000000;strokeWidth=3;fontFamily=Times New Roman;fontSize=14;fontColor=#000000;" edge="1" parent="1" source="A7lQrGsJFIJaW99qyyGC-1" target="A7lQrGsJFIJaW99qyyGC-2">
                    <mxGeometry relative="1" as="geometry"/>
                </mxCell>
                <mxCell id="A7lQrGsJFIJaW99qyyGC-1" value="*array, length" style="ellipse;whiteSpace=wrap;html=1;strokeColor=#000000;fontFamily=Times New Roman;fontSize=14;fontColor=#000000;fillColor=#FFFFFF;" vertex="1" parent="1">
                    <mxGeometry x="200" y="40" width="120" height="80" as="geometry"/>
                </mxCell>
                <mxCell id="A7lQrGsJFIJaW99qyyGC-5" value="" style="edgeStyle=none;html=1;strokeColor=#000000;strokeWidth=3;fontFamily=Times New Roman;fontSize=14;fontColor=#000000;" edge="1" parent="1" source="A7lQrGsJFIJaW99qyyGC-2" target="A7lQrGsJFIJaW99qyyGC-3">
                    <mxGeometry relative="1" as="geometry"/>
                </mxCell>
                <mxCell id="A7lQrGsJFIJaW99qyyGC-2" value="i = 0" style="shape=process;whiteSpace=wrap;html=1;backgroundOutline=1;strokeColor=#000000;fontFamily=Times New Roman;fontSize=14;fontColor=#000000;fillColor=#FFFFFF;" vertex="1" parent="1">
                    <mxGeometry x="190" y="150" width="140" height="60" as="geometry"/>
                </mxCell>
                <mxCell id="A7lQrGsJFIJaW99qyyGC-3" value="i &amp;lt; length" style="rhombus;whiteSpace=wrap;html=1;strokeColor=#000000;fontFamily=Times New Roman;fontSize=14;fontColor=#000000;fillColor=#FFFFFF;" vertex="1" parent="1">
                    <mxGeometry x="220" y="240" width="80" height="80" as="geometry"/>
                </mxCell>
                <mxCell id="A7lQrGsJFIJaW99qyyGC-6" value="" style="endArrow=classic;html=1;strokeColor=#000000;strokeWidth=3;fontFamily=Times New Roman;fontSize=14;fontColor=#000000;exitX=0.5;exitY=1;exitDx=0;exitDy=0;" edge="1" parent="1" source="A7lQrGsJFIJaW99qyyGC-3">
                    <mxGeometry width="50" height="50" relative="1" as="geometry">
                        <mxPoint x="290" y="350" as="sourcePoint"/>
                        <mxPoint x="260" y="400" as="targetPoint"/>
                    </mxGeometry>
                </mxCell>
                <mxCell id="A7lQrGsJFIJaW99qyyGC-7" value="true" style="text;html=1;align=center;verticalAlign=middle;resizable=0;points=[];autosize=1;strokeColor=none;fillColor=none;fontSize=14;fontFamily=Times New Roman;fontColor=#000000;" vertex="1" parent="1">
                    <mxGeometry x="200" y="330" width="50" height="30" as="geometry"/>
                </mxCell>
                <mxCell id="A7lQrGsJFIJaW99qyyGC-10" value="" style="edgeStyle=none;html=1;strokeColor=#000000;strokeWidth=3;fontFamily=Times New Roman;fontSize=14;fontColor=#000000;" edge="1" parent="1" source="A7lQrGsJFIJaW99qyyGC-8" target="A7lQrGsJFIJaW99qyyGC-9">
                    <mxGeometry relative="1" as="geometry"/>
                </mxCell>
                <mxCell id="A7lQrGsJFIJaW99qyyGC-8" value="array[i] = get_int()" style="shape=process;whiteSpace=wrap;html=1;backgroundOutline=1;strokeColor=#000000;fontFamily=Times New Roman;fontSize=14;fontColor=#000000;fillColor=#FFFFFF;" vertex="1" parent="1">
                    <mxGeometry x="185" y="400" width="150" height="60" as="geometry"/>
                </mxCell>
                <mxCell id="A7lQrGsJFIJaW99qyyGC-9" value="i++" style="shape=process;whiteSpace=wrap;html=1;backgroundOutline=1;strokeColor=#000000;fontFamily=Times New Roman;fontSize=14;fontColor=#000000;fillColor=#FFFFFF;" vertex="1" parent="1">
                    <mxGeometry x="185" y="480" width="150" height="60" as="geometry"/>
                </mxCell>
                <mxCell id="A7lQrGsJFIJaW99qyyGC-11" value="" style="endArrow=none;html=1;strokeColor=#000000;strokeWidth=3;fontFamily=Times New Roman;fontSize=14;fontColor=#000000;exitX=1;exitY=0.5;exitDx=0;exitDy=0;" edge="1" parent="1" source="A7lQrGsJFIJaW99qyyGC-9">
                    <mxGeometry width="50" height="50" relative="1" as="geometry">
                        <mxPoint x="270" y="400" as="sourcePoint"/>
                        <mxPoint x="390" y="510" as="targetPoint"/>
                    </mxGeometry>
                </mxCell>
                <mxCell id="A7lQrGsJFIJaW99qyyGC-12" value="" style="endArrow=classic;html=1;strokeColor=#000000;strokeWidth=3;fontFamily=Times New Roman;fontSize=14;fontColor=#000000;entryX=1;entryY=0.5;entryDx=0;entryDy=0;" edge="1" parent="1" target="A7lQrGsJFIJaW99qyyGC-3">
                    <mxGeometry width="50" height="50" relative="1" as="geometry">
                        <mxPoint x="390" y="280" as="sourcePoint"/>
                        <mxPoint x="400" y="280" as="targetPoint"/>
                    </mxGeometry>
                </mxCell>
                <mxCell id="A7lQrGsJFIJaW99qyyGC-13" value="" style="endArrow=none;html=1;strokeColor=#000000;strokeWidth=3;fontFamily=Times New Roman;fontSize=14;fontColor=#000000;" edge="1" parent="1">
                    <mxGeometry width="50" height="50" relative="1" as="geometry">
                        <mxPoint x="390" y="510" as="sourcePoint"/>
                        <mxPoint x="390" y="280" as="targetPoint"/>
                    </mxGeometry>
                </mxCell>
            </root>
        </mxGraphModel>
    </diagram>
    <diagram id="HMng-LEVKnZeqqk1vaZv" name="get_int">
        <mxGraphModel dx="535" dy="475" grid="1" gridSize="10" guides="1" tooltips="1" connect="1" arrows="1" fold="1" page="1" pageScale="1" pageWidth="827" pageHeight="1169" background="#ffffff" math="0" shadow="0">
            <root>
                <mxCell id="0"/>
                <mxCell id="1" parent="0"/>
                <mxCell id="7ZlSvFh9n26bm6qY3kz7-4" value="" style="edgeStyle=none;html=1;strokeColor=#000000;strokeWidth=3;fontFamily=Times New Roman;fontSize=14;fontColor=#000000;" edge="1" parent="1" source="7ZlSvFh9n26bm6qY3kz7-1" target="7ZlSvFh9n26bm6qY3kz7-2">
                    <mxGeometry relative="1" as="geometry"/>
                </mxCell>
                <mxCell id="7ZlSvFh9n26bm6qY3kz7-1" value="Начало" style="ellipse;whiteSpace=wrap;html=1;strokeColor=#000000;fontFamily=Times New Roman;fontSize=14;fontColor=#000000;fillColor=#FFFFFF;" vertex="1" parent="1">
                    <mxGeometry x="200" y="40" width="120" height="80" as="geometry"/>
                </mxCell>
                <mxCell id="7ZlSvFh9n26bm6qY3kz7-5" value="" style="edgeStyle=none;html=1;strokeColor=#000000;strokeWidth=3;fontFamily=Times New Roman;fontSize=14;fontColor=#000000;" edge="1" parent="1" source="7ZlSvFh9n26bm6qY3kz7-2" target="7ZlSvFh9n26bm6qY3kz7-3">
                    <mxGeometry relative="1" as="geometry"/>
                </mxCell>
                <mxCell id="7ZlSvFh9n26bm6qY3kz7-2" value="number" style="shape=process;whiteSpace=wrap;html=1;backgroundOutline=1;strokeColor=#000000;fontFamily=Times New Roman;fontSize=14;fontColor=#000000;fillColor=#FFFFFF;" vertex="1" parent="1">
                    <mxGeometry x="200" y="150" width="120" height="60" as="geometry"/>
                </mxCell>
                <mxCell id="7ZlSvFh9n26bm6qY3kz7-3" value="scanf(&quot;%d&quot;, &amp;amp;number) != 1" style="rhombus;whiteSpace=wrap;html=1;strokeColor=#000000;fontFamily=Times New Roman;fontSize=14;fontColor=#000000;fillColor=#FFFFFF;" vertex="1" parent="1">
                    <mxGeometry x="170" y="240" width="180" height="80" as="geometry"/>
                </mxCell>
                <mxCell id="7ZlSvFh9n26bm6qY3kz7-6" value="" style="endArrow=none;html=1;strokeColor=#000000;strokeWidth=3;fontFamily=Times New Roman;fontSize=14;fontColor=#000000;exitX=1;exitY=0.5;exitDx=0;exitDy=0;" edge="1" parent="1" source="7ZlSvFh9n26bm6qY3kz7-3">
                    <mxGeometry width="50" height="50" relative="1" as="geometry">
                        <mxPoint x="270" y="430" as="sourcePoint"/>
                        <mxPoint x="410" y="280" as="targetPoint"/>
                    </mxGeometry>
                </mxCell>
                <mxCell id="7ZlSvFh9n26bm6qY3kz7-7" value="" style="endArrow=none;html=1;strokeColor=#000000;strokeWidth=3;fontFamily=Times New Roman;fontSize=14;fontColor=#000000;entryX=0;entryY=0.5;entryDx=0;entryDy=0;" edge="1" parent="1" target="7ZlSvFh9n26bm6qY3kz7-3">
                    <mxGeometry width="50" height="50" relative="1" as="geometry">
                        <mxPoint x="100" y="280" as="sourcePoint"/>
                        <mxPoint x="320" y="380" as="targetPoint"/>
                    </mxGeometry>
                </mxCell>
                <mxCell id="7ZlSvFh9n26bm6qY3kz7-8" value="" style="endArrow=classic;html=1;strokeColor=#000000;strokeWidth=3;fontFamily=Times New Roman;fontSize=14;fontColor=#000000;" edge="1" parent="1">
                    <mxGeometry width="50" height="50" relative="1" as="geometry">
                        <mxPoint x="410" y="280" as="sourcePoint"/>
                        <mxPoint x="410" y="400" as="targetPoint"/>
                    </mxGeometry>
                </mxCell>
                <mxCell id="7ZlSvFh9n26bm6qY3kz7-9" value="" style="endArrow=classic;html=1;strokeColor=#000000;strokeWidth=3;fontFamily=Times New Roman;fontSize=14;fontColor=#000000;" edge="1" parent="1">
                    <mxGeometry width="50" height="50" relative="1" as="geometry">
                        <mxPoint x="100" y="280" as="sourcePoint"/>
                        <mxPoint x="100" y="400" as="targetPoint"/>
                    </mxGeometry>
                </mxCell>
                <mxCell id="7ZlSvFh9n26bm6qY3kz7-10" value="true" style="text;html=1;align=center;verticalAlign=middle;resizable=0;points=[];autosize=1;strokeColor=none;fillColor=none;fontSize=14;fontFamily=Times New Roman;fontColor=#000000;" vertex="1" parent="1">
                    <mxGeometry x="360" y="250" width="50" height="30" as="geometry"/>
                </mxCell>
                <mxCell id="7ZlSvFh9n26bm6qY3kz7-12" value="false" style="text;html=1;align=center;verticalAlign=middle;resizable=0;points=[];autosize=1;strokeColor=none;fillColor=none;fontSize=14;fontFamily=Times New Roman;fontColor=#000000;" vertex="1" parent="1">
                    <mxGeometry x="105" y="245" width="50" height="30" as="geometry"/>
                </mxCell>
                <mxCell id="7ZlSvFh9n26bm6qY3kz7-13" value="number" style="ellipse;whiteSpace=wrap;html=1;strokeColor=#000000;fontFamily=Times New Roman;fontSize=14;fontColor=#000000;fillColor=#FFFFFF;" vertex="1" parent="1">
                    <mxGeometry x="40" y="400" width="120" height="80" as="geometry"/>
                </mxCell>
                <mxCell id="7ZlSvFh9n26bm6qY3kz7-16" value="" style="edgeStyle=none;html=1;strokeColor=#000000;strokeWidth=3;fontFamily=Times New Roman;fontSize=14;fontColor=#000000;" edge="1" parent="1" source="7ZlSvFh9n26bm6qY3kz7-14" target="7ZlSvFh9n26bm6qY3kz7-15">
                    <mxGeometry relative="1" as="geometry"/>
                </mxCell>
                <mxCell id="7ZlSvFh9n26bm6qY3kz7-14" value="&quot;Insert a valid value&quot;" style="shape=parallelogram;perimeter=parallelogramPerimeter;whiteSpace=wrap;html=1;fixedSize=1;strokeColor=#000000;fontFamily=Times New Roman;fontSize=14;fontColor=#000000;fillColor=#FFFFFF;" vertex="1" parent="1">
                    <mxGeometry x="344" y="400" width="140" height="60" as="geometry"/>
                </mxCell>
                <mxCell id="7ZlSvFh9n26bm6qY3kz7-15" value="abort()" style="ellipse;whiteSpace=wrap;html=1;strokeColor=#000000;fontFamily=Times New Roman;fontSize=14;fontColor=#000000;fillColor=#FFFFFF;" vertex="1" parent="1">
                    <mxGeometry x="354" y="480" width="120" height="80" as="geometry"/>
                </mxCell>
            </root>
        </mxGraphModel>
    </diagram>
    <diagram id="ARoNa6lrs22fy1tim5hD" name="get_size_t">
        <mxGraphModel dx="535" dy="475" grid="1" gridSize="10" guides="1" tooltips="1" connect="1" arrows="1" fold="1" page="1" pageScale="1" pageWidth="827" pageHeight="1169" background="#ffffff" math="0" shadow="0">
            <root>
                <mxCell id="0"/>
                <mxCell id="1" parent="0"/>
                <mxCell id="n-0HUFPptPaxh8Y0wqO2-4" value="" style="edgeStyle=none;html=1;strokeColor=#000000;strokeWidth=3;fontFamily=Times New Roman;fontSize=14;fontColor=#000000;" edge="1" parent="1" source="n-0HUFPptPaxh8Y0wqO2-1" target="n-0HUFPptPaxh8Y0wqO2-2">
                    <mxGeometry relative="1" as="geometry"/>
                </mxCell>
                <mxCell id="n-0HUFPptPaxh8Y0wqO2-1" value="Начало" style="ellipse;whiteSpace=wrap;html=1;strokeColor=#000000;fontFamily=Times New Roman;fontSize=14;fontColor=#000000;fillColor=#FFFFFF;" vertex="1" parent="1">
                    <mxGeometry x="200" y="40" width="120" height="80" as="geometry"/>
                </mxCell>
                <mxCell id="n-0HUFPptPaxh8Y0wqO2-5" value="" style="edgeStyle=none;html=1;strokeColor=#000000;strokeWidth=3;fontFamily=Times New Roman;fontSize=14;fontColor=#000000;" edge="1" parent="1" source="n-0HUFPptPaxh8Y0wqO2-2" target="n-0HUFPptPaxh8Y0wqO2-3">
                    <mxGeometry relative="1" as="geometry"/>
                </mxCell>
                <mxCell id="n-0HUFPptPaxh8Y0wqO2-2" value="number = get_int()" style="shape=process;whiteSpace=wrap;html=1;backgroundOutline=1;strokeColor=#000000;fontFamily=Times New Roman;fontSize=14;fontColor=#000000;fillColor=#FFFFFF;" vertex="1" parent="1">
                    <mxGeometry x="185" y="150" width="150" height="60" as="geometry"/>
                </mxCell>
                <mxCell id="n-0HUFPptPaxh8Y0wqO2-3" value="number &amp;lt;= 0" style="rhombus;whiteSpace=wrap;html=1;strokeColor=#000000;fontFamily=Times New Roman;fontSize=14;fontColor=#000000;fillColor=#FFFFFF;" vertex="1" parent="1">
                    <mxGeometry x="205" y="240" width="110" height="80" as="geometry"/>
                </mxCell>
                <mxCell id="n-0HUFPptPaxh8Y0wqO2-6" value="" style="endArrow=none;html=1;strokeColor=#000000;strokeWidth=3;fontFamily=Times New Roman;fontSize=14;fontColor=#000000;exitX=1;exitY=0.5;exitDx=0;exitDy=0;" edge="1" parent="1" source="n-0HUFPptPaxh8Y0wqO2-3">
                    <mxGeometry width="50" height="50" relative="1" as="geometry">
                        <mxPoint x="250" y="260" as="sourcePoint"/>
                        <mxPoint x="380" y="280" as="targetPoint"/>
                    </mxGeometry>
                </mxCell>
                <mxCell id="n-0HUFPptPaxh8Y0wqO2-8" value="" style="endArrow=none;html=1;strokeColor=#000000;strokeWidth=3;fontFamily=Times New Roman;fontSize=14;fontColor=#000000;exitX=1;exitY=0.5;exitDx=0;exitDy=0;" edge="1" parent="1">
                    <mxGeometry width="50" height="50" relative="1" as="geometry">
                        <mxPoint x="140" y="279.5" as="sourcePoint"/>
                        <mxPoint x="205" y="279.5" as="targetPoint"/>
                    </mxGeometry>
                </mxCell>
                <mxCell id="n-0HUFPptPaxh8Y0wqO2-9" value="" style="endArrow=classic;html=1;strokeColor=#000000;strokeWidth=3;fontFamily=Times New Roman;fontSize=14;fontColor=#000000;" edge="1" parent="1">
                    <mxGeometry width="50" height="50" relative="1" as="geometry">
                        <mxPoint x="380" y="280" as="sourcePoint"/>
                        <mxPoint x="380" y="360" as="targetPoint"/>
                    </mxGeometry>
                </mxCell>
                <mxCell id="n-0HUFPptPaxh8Y0wqO2-10" value="" style="endArrow=classic;html=1;strokeColor=#000000;strokeWidth=3;fontFamily=Times New Roman;fontSize=14;fontColor=#000000;" edge="1" parent="1">
                    <mxGeometry width="50" height="50" relative="1" as="geometry">
                        <mxPoint x="140" y="280" as="sourcePoint"/>
                        <mxPoint x="140" y="360" as="targetPoint"/>
                    </mxGeometry>
                </mxCell>
                <mxCell id="n-0HUFPptPaxh8Y0wqO2-11" value="true" style="text;html=1;align=center;verticalAlign=middle;resizable=0;points=[];autosize=1;strokeColor=none;fillColor=none;fontSize=14;fontFamily=Times New Roman;fontColor=#000000;" vertex="1" parent="1">
                    <mxGeometry x="315" y="245" width="50" height="30" as="geometry"/>
                </mxCell>
                <mxCell id="n-0HUFPptPaxh8Y0wqO2-12" value="false" style="text;html=1;align=center;verticalAlign=middle;resizable=0;points=[];autosize=1;strokeColor=none;fillColor=none;fontSize=14;fontFamily=Times New Roman;fontColor=#000000;" vertex="1" parent="1">
                    <mxGeometry x="155" y="245" width="50" height="30" as="geometry"/>
                </mxCell>
                <mxCell id="n-0HUFPptPaxh8Y0wqO2-13" value="errno = ERANGE" style="shape=process;whiteSpace=wrap;html=1;backgroundOutline=1;strokeColor=#000000;fontFamily=Times New Roman;fontSize=14;fontColor=#000000;fillColor=#FFFFFF;" vertex="1" parent="1">
                    <mxGeometry x="315" y="360" width="130" height="60" as="geometry"/>
                </mxCell>
                <mxCell id="n-0HUFPptPaxh8Y0wqO2-14" value="perror(&quot;Error: &quot;)" style="shape=parallelogram;perimeter=parallelogramPerimeter;whiteSpace=wrap;html=1;fixedSize=1;strokeColor=#000000;fontFamily=Times New Roman;fontSize=14;fontColor=#000000;fillColor=#FFFFFF;" vertex="1" parent="1">
                    <mxGeometry x="312.5" y="450" width="135" height="60" as="geometry"/>
                </mxCell>
                <mxCell id="n-0HUFPptPaxh8Y0wqO2-15" value="abort()" style="ellipse;whiteSpace=wrap;html=1;strokeColor=#000000;fontFamily=Times New Roman;fontSize=14;fontColor=#000000;fillColor=#FFFFFF;" vertex="1" parent="1">
                    <mxGeometry x="320" y="530" width="120" height="80" as="geometry"/>
                </mxCell>
                <mxCell id="n-0HUFPptPaxh8Y0wqO2-17" value="" style="endArrow=classic;html=1;strokeColor=#000000;strokeWidth=3;fontFamily=Times New Roman;fontSize=14;fontColor=#000000;exitX=0.5;exitY=1;exitDx=0;exitDy=0;entryX=0.5;entryY=0;entryDx=0;entryDy=0;" edge="1" parent="1" source="n-0HUFPptPaxh8Y0wqO2-13" target="n-0HUFPptPaxh8Y0wqO2-14">
                    <mxGeometry width="50" height="50" relative="1" as="geometry">
                        <mxPoint x="320" y="510" as="sourcePoint"/>
                        <mxPoint x="370" y="460" as="targetPoint"/>
                    </mxGeometry>
                </mxCell>
                <mxCell id="n-0HUFPptPaxh8Y0wqO2-18" value="" style="endArrow=classic;html=1;strokeColor=#000000;strokeWidth=3;fontFamily=Times New Roman;fontSize=14;fontColor=#000000;exitX=0.5;exitY=1;exitDx=0;exitDy=0;entryX=0.5;entryY=0;entryDx=0;entryDy=0;" edge="1" parent="1" source="n-0HUFPptPaxh8Y0wqO2-14" target="n-0HUFPptPaxh8Y0wqO2-15">
                    <mxGeometry width="50" height="50" relative="1" as="geometry">
                        <mxPoint x="320" y="510" as="sourcePoint"/>
                        <mxPoint x="370" y="460" as="targetPoint"/>
                    </mxGeometry>
                </mxCell>
                <mxCell id="n-0HUFPptPaxh8Y0wqO2-19" value="(size_t)number" style="ellipse;whiteSpace=wrap;html=1;strokeColor=#000000;fontFamily=Times New Roman;fontSize=14;fontColor=#000000;fillColor=#FFFFFF;" vertex="1" parent="1">
                    <mxGeometry x="80" y="360" width="120" height="80" as="geometry"/>
                </mxCell>
            </root>
        </mxGraphModel>
    </diagram>
    <diagram id="9OVpLwfokyXyAYOwAmNj" name="first_task">
        <mxGraphModel dx="535" dy="475" grid="1" gridSize="10" guides="1" tooltips="1" connect="1" arrows="1" fold="1" page="1" pageScale="1" pageWidth="827" pageHeight="1169" background="#ffffff" math="0" shadow="0">
            <root>
                <mxCell id="0"/>
                <mxCell id="1" parent="0"/>
                <mxCell id="ZrWBYNmtuZUT5k1Vj9Wn-8" style="edgeStyle=none;html=1;exitX=0.5;exitY=1;exitDx=0;exitDy=0;strokeColor=#000000;strokeWidth=3;fontFamily=Times New Roman;fontSize=14;fontColor=#000000;" edge="1" parent="1" source="ZrWBYNmtuZUT5k1Vj9Wn-1" target="ZrWBYNmtuZUT5k1Vj9Wn-2">
                    <mxGeometry relative="1" as="geometry"/>
                </mxCell>
                <mxCell id="ZrWBYNmtuZUT5k1Vj9Wn-1" value="*array, length, number" style="ellipse;whiteSpace=wrap;html=1;strokeColor=#000000;fontFamily=Times New Roman;fontSize=14;fontColor=#000000;fillColor=#FFFFFF;" vertex="1" parent="1">
                    <mxGeometry x="200" y="40" width="120" height="80" as="geometry"/>
                </mxCell>
                <mxCell id="ZrWBYNmtuZUT5k1Vj9Wn-9" style="edgeStyle=none;html=1;exitX=0.5;exitY=1;exitDx=0;exitDy=0;entryX=0.5;entryY=0;entryDx=0;entryDy=0;strokeColor=#000000;strokeWidth=3;fontFamily=Times New Roman;fontSize=14;fontColor=#000000;" edge="1" parent="1" source="ZrWBYNmtuZUT5k1Vj9Wn-2" target="ZrWBYNmtuZUT5k1Vj9Wn-4">
                    <mxGeometry relative="1" as="geometry"/>
                </mxCell>
                <mxCell id="ZrWBYNmtuZUT5k1Vj9Wn-2" value="result = 0" style="shape=process;whiteSpace=wrap;html=1;backgroundOutline=1;strokeColor=#000000;fontFamily=Times New Roman;fontSize=14;fontColor=#000000;fillColor=#FFFFFF;" vertex="1" parent="1">
                    <mxGeometry x="200" y="150" width="120" height="60" as="geometry"/>
                </mxCell>
                <mxCell id="ZrWBYNmtuZUT5k1Vj9Wn-10" style="edgeStyle=none;html=1;exitX=0.5;exitY=1;exitDx=0;exitDy=0;strokeColor=#000000;strokeWidth=3;fontFamily=Times New Roman;fontSize=14;fontColor=#000000;" edge="1" parent="1" source="ZrWBYNmtuZUT5k1Vj9Wn-4" target="ZrWBYNmtuZUT5k1Vj9Wn-5">
                    <mxGeometry relative="1" as="geometry"/>
                </mxCell>
                <mxCell id="ZrWBYNmtuZUT5k1Vj9Wn-4" value="i = 0" style="shape=process;whiteSpace=wrap;html=1;backgroundOutline=1;strokeColor=#000000;fontFamily=Times New Roman;fontSize=14;fontColor=#000000;fillColor=#FFFFFF;" vertex="1" parent="1">
                    <mxGeometry x="200" y="230" width="120" height="60" as="geometry"/>
                </mxCell>
                <mxCell id="ZrWBYNmtuZUT5k1Vj9Wn-5" value="i &amp;lt; length" style="rhombus;whiteSpace=wrap;html=1;strokeColor=#000000;fontFamily=Times New Roman;fontSize=14;fontColor=#000000;fillColor=#FFFFFF;" vertex="1" parent="1">
                    <mxGeometry x="220" y="310" width="80" height="80" as="geometry"/>
                </mxCell>
                <mxCell id="ZrWBYNmtuZUT5k1Vj9Wn-11" value="" style="endArrow=classic;html=1;strokeColor=#000000;strokeWidth=3;fontFamily=Times New Roman;fontSize=14;fontColor=#000000;exitX=0.5;exitY=1;exitDx=0;exitDy=0;" edge="1" parent="1" source="ZrWBYNmtuZUT5k1Vj9Wn-5">
                    <mxGeometry width="50" height="50" relative="1" as="geometry">
                        <mxPoint x="270" y="470" as="sourcePoint"/>
                        <mxPoint x="260" y="460" as="targetPoint"/>
                    </mxGeometry>
                </mxCell>
                <mxCell id="ZrWBYNmtuZUT5k1Vj9Wn-15" value="" style="edgeStyle=none;html=1;strokeColor=#000000;strokeWidth=3;fontFamily=Times New Roman;fontSize=14;fontColor=#000000;" edge="1" parent="1" source="ZrWBYNmtuZUT5k1Vj9Wn-12" target="ZrWBYNmtuZUT5k1Vj9Wn-14">
                    <mxGeometry relative="1" as="geometry"/>
                </mxCell>
                <mxCell id="ZrWBYNmtuZUT5k1Vj9Wn-12" value="result += array[i]" style="shape=process;whiteSpace=wrap;html=1;backgroundOutline=1;strokeColor=#000000;fontFamily=Times New Roman;fontSize=14;fontColor=#000000;fillColor=#FFFFFF;" vertex="1" parent="1">
                    <mxGeometry x="195" y="460" width="130" height="60" as="geometry"/>
                </mxCell>
                <mxCell id="ZrWBYNmtuZUT5k1Vj9Wn-13" value="true" style="text;html=1;align=center;verticalAlign=middle;resizable=0;points=[];autosize=1;strokeColor=none;fillColor=none;fontSize=14;fontFamily=Times New Roman;fontColor=#000000;" vertex="1" parent="1">
                    <mxGeometry x="195" y="405" width="50" height="30" as="geometry"/>
                </mxCell>
                <mxCell id="ZrWBYNmtuZUT5k1Vj9Wn-14" value="i += 2" style="shape=process;whiteSpace=wrap;html=1;backgroundOutline=1;strokeColor=#000000;fontFamily=Times New Roman;fontSize=14;fontColor=#000000;fillColor=#FFFFFF;" vertex="1" parent="1">
                    <mxGeometry x="195" y="540" width="130" height="60" as="geometry"/>
                </mxCell>
                <mxCell id="ZrWBYNmtuZUT5k1Vj9Wn-16" value="" style="endArrow=none;html=1;strokeColor=#000000;strokeWidth=3;fontFamily=Times New Roman;fontSize=14;fontColor=#000000;exitX=1;exitY=0.5;exitDx=0;exitDy=0;" edge="1" parent="1" source="ZrWBYNmtuZUT5k1Vj9Wn-14">
                    <mxGeometry width="50" height="50" relative="1" as="geometry">
                        <mxPoint x="270" y="460" as="sourcePoint"/>
                        <mxPoint x="400" y="570" as="targetPoint"/>
                    </mxGeometry>
                </mxCell>
                <mxCell id="ZrWBYNmtuZUT5k1Vj9Wn-17" value="" style="endArrow=classic;html=1;strokeColor=#000000;strokeWidth=3;fontFamily=Times New Roman;fontSize=14;fontColor=#000000;entryX=1;entryY=0.5;entryDx=0;entryDy=0;" edge="1" parent="1" target="ZrWBYNmtuZUT5k1Vj9Wn-5">
                    <mxGeometry width="50" height="50" relative="1" as="geometry">
                        <mxPoint x="400" y="350" as="sourcePoint"/>
                        <mxPoint x="320" y="410" as="targetPoint"/>
                    </mxGeometry>
                </mxCell>
                <mxCell id="ZrWBYNmtuZUT5k1Vj9Wn-18" value="" style="endArrow=none;html=1;strokeColor=#000000;strokeWidth=3;fontFamily=Times New Roman;fontSize=14;fontColor=#000000;" edge="1" parent="1">
                    <mxGeometry width="50" height="50" relative="1" as="geometry">
                        <mxPoint x="400" y="570" as="sourcePoint"/>
                        <mxPoint x="400" y="350" as="targetPoint"/>
                    </mxGeometry>
                </mxCell>
                <mxCell id="ZrWBYNmtuZUT5k1Vj9Wn-19" value="" style="endArrow=none;html=1;strokeColor=#000000;strokeWidth=3;fontFamily=Times New Roman;fontSize=14;fontColor=#000000;exitX=0;exitY=0.5;exitDx=0;exitDy=0;" edge="1" parent="1" source="ZrWBYNmtuZUT5k1Vj9Wn-5">
                    <mxGeometry width="50" height="50" relative="1" as="geometry">
                        <mxPoint x="270" y="460" as="sourcePoint"/>
                        <mxPoint x="100" y="350" as="targetPoint"/>
                    </mxGeometry>
                </mxCell>
                <mxCell id="ZrWBYNmtuZUT5k1Vj9Wn-20" value="" style="endArrow=classic;html=1;strokeColor=#000000;strokeWidth=3;fontFamily=Times New Roman;fontSize=14;fontColor=#000000;" edge="1" parent="1" target="ZrWBYNmtuZUT5k1Vj9Wn-21">
                    <mxGeometry width="50" height="50" relative="1" as="geometry">
                        <mxPoint x="100" y="350" as="sourcePoint"/>
                        <mxPoint x="100" y="480" as="targetPoint"/>
                    </mxGeometry>
                </mxCell>
                <mxCell id="ZrWBYNmtuZUT5k1Vj9Wn-21" value="result" style="ellipse;whiteSpace=wrap;html=1;strokeColor=#000000;fontFamily=Times New Roman;fontSize=14;fontColor=#000000;fillColor=#FFFFFF;" vertex="1" parent="1">
                    <mxGeometry x="40" y="440" width="120" height="80" as="geometry"/>
                </mxCell>
                <mxCell id="ZrWBYNmtuZUT5k1Vj9Wn-22" value="false" style="text;html=1;align=center;verticalAlign=middle;resizable=0;points=[];autosize=1;strokeColor=none;fillColor=none;fontSize=14;fontFamily=Times New Roman;fontColor=#000000;" vertex="1" parent="1">
                    <mxGeometry x="115" y="315" width="50" height="30" as="geometry"/>
                </mxCell>
            </root>
        </mxGraphModel>
    </diagram>
    <diagram id="N4Cl8yhrXjwoXm5iq7ti" name="second_task">
        <mxGraphModel dx="832" dy="475" grid="1" gridSize="10" guides="1" tooltips="1" connect="1" arrows="1" fold="1" page="1" pageScale="1" pageWidth="827" pageHeight="1169" background="#ffffff" math="0" shadow="0">
            <root>
                <mxCell id="0"/>
                <mxCell id="1" parent="0"/>
                <mxCell id="xBxsukU8dkH4HBuPLWt2-5" style="edgeStyle=none;html=1;exitX=0.5;exitY=1;exitDx=0;exitDy=0;entryX=0.5;entryY=0;entryDx=0;entryDy=0;strokeColor=#000000;strokeWidth=3;fontFamily=Times New Roman;fontSize=14;fontColor=#000000;" edge="1" parent="1" source="xBxsukU8dkH4HBuPLWt2-1" target="xBxsukU8dkH4HBuPLWt2-2">
                    <mxGeometry relative="1" as="geometry"/>
                </mxCell>
                <mxCell id="xBxsukU8dkH4HBuPLWt2-1" value="*array, length" style="ellipse;whiteSpace=wrap;html=1;strokeColor=#000000;fontFamily=Times New Roman;fontSize=14;fontColor=#000000;fillColor=#FFFFFF;" vertex="1" parent="1">
                    <mxGeometry x="200" y="40" width="120" height="80" as="geometry"/>
                </mxCell>
                <mxCell id="xBxsukU8dkH4HBuPLWt2-6" style="edgeStyle=none;html=1;exitX=0.5;exitY=1;exitDx=0;exitDy=0;entryX=0.5;entryY=0;entryDx=0;entryDy=0;strokeColor=#000000;strokeWidth=3;fontFamily=Times New Roman;fontSize=14;fontColor=#000000;" edge="1" parent="1" source="xBxsukU8dkH4HBuPLWt2-2" target="xBxsukU8dkH4HBuPLWt2-3">
                    <mxGeometry relative="1" as="geometry"/>
                </mxCell>
                <mxCell id="xBxsukU8dkH4HBuPLWt2-2" value="result = array[length-1]" style="shape=process;whiteSpace=wrap;html=1;backgroundOutline=1;strokeColor=#000000;fontFamily=Times New Roman;fontSize=14;fontColor=#000000;fillColor=#FFFFFF;" vertex="1" parent="1">
                    <mxGeometry x="170" y="140" width="180" height="60" as="geometry"/>
                </mxCell>
                <mxCell id="xBxsukU8dkH4HBuPLWt2-7" style="edgeStyle=none;html=1;exitX=0.5;exitY=1;exitDx=0;exitDy=0;entryX=0.5;entryY=0;entryDx=0;entryDy=0;strokeColor=#000000;strokeWidth=3;fontFamily=Times New Roman;fontSize=14;fontColor=#000000;" edge="1" parent="1" source="xBxsukU8dkH4HBuPLWt2-3" target="xBxsukU8dkH4HBuPLWt2-4">
                    <mxGeometry relative="1" as="geometry"/>
                </mxCell>
                <mxCell id="xBxsukU8dkH4HBuPLWt2-3" value="i = 1" style="shape=process;whiteSpace=wrap;html=1;backgroundOutline=1;strokeColor=#000000;fontFamily=Times New Roman;fontSize=14;fontColor=#000000;fillColor=#FFFFFF;" vertex="1" parent="1">
                    <mxGeometry x="170" y="220" width="180" height="60" as="geometry"/>
                </mxCell>
                <mxCell id="xBxsukU8dkH4HBuPLWt2-4" value="i &amp;lt; length" style="rhombus;whiteSpace=wrap;html=1;strokeColor=#000000;fontFamily=Times New Roman;fontSize=14;fontColor=#000000;fillColor=#FFFFFF;" vertex="1" parent="1">
                    <mxGeometry x="220" y="300" width="80" height="80" as="geometry"/>
                </mxCell>
                <mxCell id="xBxsukU8dkH4HBuPLWt2-8" value="" style="endArrow=classic;html=1;strokeColor=#000000;strokeWidth=3;fontFamily=Times New Roman;fontSize=14;fontColor=#000000;exitX=0.5;exitY=1;exitDx=0;exitDy=0;" edge="1" parent="1" source="xBxsukU8dkH4HBuPLWt2-4">
                    <mxGeometry width="50" height="50" relative="1" as="geometry">
                        <mxPoint x="260" y="360" as="sourcePoint"/>
                        <mxPoint x="260" y="460" as="targetPoint"/>
                    </mxGeometry>
                </mxCell>
                <mxCell id="xBxsukU8dkH4HBuPLWt2-9" value="array[i] &amp;lt; 0" style="rhombus;whiteSpace=wrap;html=1;strokeColor=#000000;fontFamily=Times New Roman;fontSize=14;fontColor=#000000;fillColor=#FFFFFF;" vertex="1" parent="1">
                    <mxGeometry x="220" y="460" width="80" height="80" as="geometry"/>
                </mxCell>
                <mxCell id="xBxsukU8dkH4HBuPLWt2-10" value="true" style="text;html=1;align=center;verticalAlign=middle;resizable=0;points=[];autosize=1;strokeColor=none;fillColor=none;fontSize=14;fontFamily=Times New Roman;fontColor=#000000;" vertex="1" parent="1">
                    <mxGeometry x="205" y="395" width="50" height="30" as="geometry"/>
                </mxCell>
                <mxCell id="xBxsukU8dkH4HBuPLWt2-11" value="" style="endArrow=none;html=1;strokeColor=#000000;strokeWidth=3;fontFamily=Times New Roman;fontSize=14;fontColor=#000000;exitX=1;exitY=0.5;exitDx=0;exitDy=0;" edge="1" parent="1" source="xBxsukU8dkH4HBuPLWt2-9">
                    <mxGeometry width="50" height="50" relative="1" as="geometry">
                        <mxPoint x="270" y="450" as="sourcePoint"/>
                        <mxPoint x="330" y="500" as="targetPoint"/>
                    </mxGeometry>
                </mxCell>
                <mxCell id="xBxsukU8dkH4HBuPLWt2-12" value="" style="endArrow=none;html=1;strokeColor=#000000;strokeWidth=3;fontFamily=Times New Roman;fontSize=14;fontColor=#000000;exitX=1;exitY=0.5;exitDx=0;exitDy=0;" edge="1" parent="1">
                    <mxGeometry width="50" height="50" relative="1" as="geometry">
                        <mxPoint x="190" y="499.75" as="sourcePoint"/>
                        <mxPoint x="220" y="499.75" as="targetPoint"/>
                        <Array as="points">
                            <mxPoint x="190" y="499.75"/>
                        </Array>
                    </mxGeometry>
                </mxCell>
                <mxCell id="xBxsukU8dkH4HBuPLWt2-13" value="true" style="text;html=1;align=center;verticalAlign=middle;resizable=0;points=[];autosize=1;strokeColor=none;fillColor=none;fontSize=14;fontFamily=Times New Roman;fontColor=#000000;" vertex="1" parent="1">
                    <mxGeometry x="290" y="470" width="50" height="30" as="geometry"/>
                </mxCell>
                <mxCell id="xBxsukU8dkH4HBuPLWt2-14" value="false" style="text;html=1;align=center;verticalAlign=middle;resizable=0;points=[];autosize=1;strokeColor=none;fillColor=none;fontSize=14;fontFamily=Times New Roman;fontColor=#000000;" vertex="1" parent="1">
                    <mxGeometry x="180" y="450" width="50" height="30" as="geometry"/>
                </mxCell>
                <mxCell id="xBxsukU8dkH4HBuPLWt2-15" value="" style="endArrow=classic;html=1;strokeColor=#000000;strokeWidth=3;fontFamily=Times New Roman;fontSize=14;fontColor=#000000;" edge="1" parent="1">
                    <mxGeometry width="50" height="50" relative="1" as="geometry">
                        <mxPoint x="332" y="500" as="sourcePoint"/>
                        <mxPoint x="332" y="560" as="targetPoint"/>
                    </mxGeometry>
                </mxCell>
                <mxCell id="xBxsukU8dkH4HBuPLWt2-17" value="result *= array[i]" style="shape=process;whiteSpace=wrap;html=1;backgroundOutline=1;strokeColor=#000000;fontFamily=Times New Roman;fontSize=14;fontColor=#000000;fillColor=#FFFFFF;" vertex="1" parent="1">
                    <mxGeometry x="270" y="560" width="130" height="60" as="geometry"/>
                </mxCell>
                <mxCell id="xBxsukU8dkH4HBuPLWt2-18" value="" style="endArrow=none;html=1;strokeColor=#000000;strokeWidth=3;fontFamily=Times New Roman;fontSize=14;fontColor=#000000;" edge="1" parent="1">
                    <mxGeometry width="50" height="50" relative="1" as="geometry">
                        <mxPoint x="190" y="500" as="sourcePoint"/>
                        <mxPoint x="190" y="640" as="targetPoint"/>
                    </mxGeometry>
                </mxCell>
                <mxCell id="xBxsukU8dkH4HBuPLWt2-19" value="" style="endArrow=classic;html=1;strokeColor=#000000;strokeWidth=3;fontFamily=Times New Roman;fontSize=14;fontColor=#000000;exitX=0.5;exitY=1;exitDx=0;exitDy=0;" edge="1" parent="1" source="xBxsukU8dkH4HBuPLWt2-17">
                    <mxGeometry width="50" height="50" relative="1" as="geometry">
                        <mxPoint x="260" y="630" as="sourcePoint"/>
                        <mxPoint x="335" y="670" as="targetPoint"/>
                    </mxGeometry>
                </mxCell>
                <mxCell id="xBxsukU8dkH4HBuPLWt2-21" value="" style="endArrow=classic;html=1;strokeColor=#000000;strokeWidth=3;fontFamily=Times New Roman;fontSize=14;fontColor=#000000;" edge="1" parent="1">
                    <mxGeometry width="50" height="50" relative="1" as="geometry">
                        <mxPoint x="190" y="640" as="sourcePoint"/>
                        <mxPoint x="330" y="640" as="targetPoint"/>
                    </mxGeometry>
                </mxCell>
                <mxCell id="xBxsukU8dkH4HBuPLWt2-22" value="i += 2" style="shape=process;whiteSpace=wrap;html=1;backgroundOutline=1;strokeColor=#000000;fontFamily=Times New Roman;fontSize=14;fontColor=#000000;fillColor=#FFFFFF;" vertex="1" parent="1">
                    <mxGeometry x="275" y="670" width="120" height="60" as="geometry"/>
                </mxCell>
                <mxCell id="xBxsukU8dkH4HBuPLWt2-24" value="" style="endArrow=none;html=1;strokeColor=#000000;strokeWidth=3;fontFamily=Times New Roman;fontSize=14;fontColor=#000000;entryX=0.5;entryY=1;entryDx=0;entryDy=0;" edge="1" parent="1" target="xBxsukU8dkH4HBuPLWt2-22">
                    <mxGeometry width="50" height="50" relative="1" as="geometry">
                        <mxPoint x="335" y="760" as="sourcePoint"/>
                        <mxPoint x="310" y="580" as="targetPoint"/>
                    </mxGeometry>
                </mxCell>
                <mxCell id="xBxsukU8dkH4HBuPLWt2-26" value="" style="endArrow=none;html=1;strokeColor=#000000;strokeWidth=3;fontFamily=Times New Roman;fontSize=14;fontColor=#000000;" edge="1" parent="1">
                    <mxGeometry width="50" height="50" relative="1" as="geometry">
                        <mxPoint x="340" y="760" as="sourcePoint"/>
                        <mxPoint x="470" y="760" as="targetPoint"/>
                    </mxGeometry>
                </mxCell>
                <mxCell id="xBxsukU8dkH4HBuPLWt2-28" value="" style="endArrow=none;html=1;strokeColor=#000000;strokeWidth=3;fontFamily=Times New Roman;fontSize=14;fontColor=#000000;" edge="1" parent="1">
                    <mxGeometry width="50" height="50" relative="1" as="geometry">
                        <mxPoint x="470" y="760" as="sourcePoint"/>
                        <mxPoint x="470" y="340" as="targetPoint"/>
                    </mxGeometry>
                </mxCell>
                <mxCell id="xBxsukU8dkH4HBuPLWt2-29" value="" style="endArrow=classic;html=1;strokeColor=#000000;strokeWidth=3;fontFamily=Times New Roman;fontSize=14;fontColor=#000000;entryX=1;entryY=0.5;entryDx=0;entryDy=0;" edge="1" parent="1" target="xBxsukU8dkH4HBuPLWt2-4">
                    <mxGeometry width="50" height="50" relative="1" as="geometry">
                        <mxPoint x="470" y="340" as="sourcePoint"/>
                        <mxPoint x="340" y="320" as="targetPoint"/>
                    </mxGeometry>
                </mxCell>
                <mxCell id="xBxsukU8dkH4HBuPLWt2-30" value="" style="endArrow=none;html=1;strokeColor=#000000;strokeWidth=3;fontFamily=Times New Roman;fontSize=14;fontColor=#000000;entryX=0;entryY=0.5;entryDx=0;entryDy=0;" edge="1" parent="1" target="xBxsukU8dkH4HBuPLWt2-4">
                    <mxGeometry width="50" height="50" relative="1" as="geometry">
                        <mxPoint x="90" y="340" as="sourcePoint"/>
                        <mxPoint x="220" y="410" as="targetPoint"/>
                    </mxGeometry>
                </mxCell>
                <mxCell id="xBxsukU8dkH4HBuPLWt2-31" value="" style="endArrow=classic;html=1;strokeColor=#000000;strokeWidth=3;fontFamily=Times New Roman;fontSize=14;fontColor=#000000;" edge="1" parent="1">
                    <mxGeometry width="50" height="50" relative="1" as="geometry">
                        <mxPoint x="90" y="340" as="sourcePoint"/>
                        <mxPoint x="90" y="480" as="targetPoint"/>
                    </mxGeometry>
                </mxCell>
                <mxCell id="xBxsukU8dkH4HBuPLWt2-32" value="false" style="text;html=1;align=center;verticalAlign=middle;resizable=0;points=[];autosize=1;strokeColor=none;fillColor=none;fontSize=14;fontFamily=Times New Roman;fontColor=#000000;" vertex="1" parent="1">
                    <mxGeometry x="120" y="310" width="50" height="30" as="geometry"/>
                </mxCell>
                <mxCell id="xBxsukU8dkH4HBuPLWt2-33" value="result" style="ellipse;whiteSpace=wrap;html=1;strokeColor=#000000;fontFamily=Times New Roman;fontSize=14;fontColor=#000000;fillColor=#FFFFFF;" vertex="1" parent="1">
                    <mxGeometry x="30" y="480" width="120" height="80" as="geometry"/>
                </mxCell>
            </root>
        </mxGraphModel>
    </diagram>
    <diagram id="EpnqZdwrSI-dAUkkH5g-" name="third_task">
        <mxGraphModel dx="832" dy="475" grid="1" gridSize="10" guides="1" tooltips="1" connect="1" arrows="1" fold="1" page="1" pageScale="1" pageWidth="827" pageHeight="1169" background="#ffffff" math="0" shadow="0">
            <root>
                <mxCell id="0"/>
                <mxCell id="1" parent="0"/>
                <mxCell id="Pbz9htwHhMwURbpr_iEO-3" style="edgeStyle=none;html=1;exitX=0.5;exitY=1;exitDx=0;exitDy=0;strokeColor=#000000;strokeWidth=3;fontFamily=Times New Roman;fontSize=14;fontColor=#000000;" edge="1" parent="1" source="xxxrfAbof9G4AtLWJ7k8-1" target="Pbz9htwHhMwURbpr_iEO-1">
                    <mxGeometry relative="1" as="geometry"/>
                </mxCell>
                <mxCell id="xxxrfAbof9G4AtLWJ7k8-1" value="*array, length" style="ellipse;whiteSpace=wrap;html=1;strokeColor=#000000;fontFamily=Times New Roman;fontSize=14;fontColor=#000000;fillColor=#FFFFFF;" vertex="1" parent="1">
                    <mxGeometry x="320" y="40" width="120" height="80" as="geometry"/>
                </mxCell>
                <mxCell id="Pbz9htwHhMwURbpr_iEO-4" style="edgeStyle=none;html=1;exitX=0.5;exitY=1;exitDx=0;exitDy=0;entryX=0.5;entryY=0;entryDx=0;entryDy=0;strokeColor=#000000;strokeWidth=3;fontFamily=Times New Roman;fontSize=14;fontColor=#000000;" edge="1" parent="1" source="Pbz9htwHhMwURbpr_iEO-1" target="Pbz9htwHhMwURbpr_iEO-2">
                    <mxGeometry relative="1" as="geometry"/>
                </mxCell>
                <mxCell id="Pbz9htwHhMwURbpr_iEO-1" value="i = 1" style="shape=process;whiteSpace=wrap;html=1;backgroundOutline=1;strokeColor=#000000;fontFamily=Times New Roman;fontSize=14;fontColor=#000000;fillColor=#FFFFFF;" vertex="1" parent="1">
                    <mxGeometry x="320" y="150" width="120" height="60" as="geometry"/>
                </mxCell>
                <mxCell id="Pbz9htwHhMwURbpr_iEO-6" style="edgeStyle=none;html=1;exitX=0.5;exitY=1;exitDx=0;exitDy=0;entryX=0.5;entryY=0;entryDx=0;entryDy=0;strokeColor=#000000;strokeWidth=3;fontFamily=Times New Roman;fontSize=14;fontColor=#000000;" edge="1" parent="1" source="Pbz9htwHhMwURbpr_iEO-2" target="Pbz9htwHhMwURbpr_iEO-5">
                    <mxGeometry relative="1" as="geometry"/>
                </mxCell>
                <mxCell id="Pbz9htwHhMwURbpr_iEO-2" value="i &amp;lt; length" style="rhombus;whiteSpace=wrap;html=1;strokeColor=#000000;fontFamily=Times New Roman;fontSize=14;fontColor=#000000;fillColor=#FFFFFF;" vertex="1" parent="1">
                    <mxGeometry x="340" y="230" width="80" height="80" as="geometry"/>
                </mxCell>
                <mxCell id="Pbz9htwHhMwURbpr_iEO-5" value="(array[i] * array[i-1]) &amp;lt; 0" style="rhombus;whiteSpace=wrap;html=1;strokeColor=#000000;fontFamily=Times New Roman;fontSize=14;fontColor=#000000;fillColor=#FFFFFF;" vertex="1" parent="1">
                    <mxGeometry x="295" y="360" width="170" height="80" as="geometry"/>
                </mxCell>
                <mxCell id="Pbz9htwHhMwURbpr_iEO-7" value="true" style="text;html=1;align=center;verticalAlign=middle;resizable=0;points=[];autosize=1;strokeColor=none;fillColor=none;fontSize=14;fontFamily=Times New Roman;fontColor=#000000;" vertex="1" parent="1">
                    <mxGeometry x="320" y="320" width="50" height="30" as="geometry"/>
                </mxCell>
                <mxCell id="Pbz9htwHhMwURbpr_iEO-8" value="" style="endArrow=classic;html=1;strokeColor=#000000;strokeWidth=3;fontFamily=Times New Roman;fontSize=14;fontColor=#000000;exitX=0.5;exitY=1;exitDx=0;exitDy=0;" edge="1" parent="1" source="Pbz9htwHhMwURbpr_iEO-5">
                    <mxGeometry width="50" height="50" relative="1" as="geometry">
                        <mxPoint x="430" y="440" as="sourcePoint"/>
                        <mxPoint x="380" y="540" as="targetPoint"/>
                    </mxGeometry>
                </mxCell>
                <mxCell id="Pbz9htwHhMwURbpr_iEO-9" value="" style="endArrow=none;html=1;strokeColor=#000000;strokeWidth=3;fontFamily=Times New Roman;fontSize=14;fontColor=#000000;exitX=0.971;exitY=0.5;exitDx=0;exitDy=0;exitPerimeter=0;" edge="1" parent="1" source="Pbz9htwHhMwURbpr_iEO-5">
                    <mxGeometry width="50" height="50" relative="1" as="geometry">
                        <mxPoint x="430" y="440" as="sourcePoint"/>
                        <mxPoint x="520" y="400" as="targetPoint"/>
                    </mxGeometry>
                </mxCell>
                <mxCell id="Pbz9htwHhMwURbpr_iEO-10" value="" style="endArrow=classic;html=1;strokeColor=#000000;strokeWidth=3;fontFamily=Times New Roman;fontSize=14;fontColor=#000000;" edge="1" parent="1">
                    <mxGeometry width="50" height="50" relative="1" as="geometry">
                        <mxPoint x="520" y="400" as="sourcePoint"/>
                        <mxPoint x="520" y="460" as="targetPoint"/>
                    </mxGeometry>
                </mxCell>
                <mxCell id="Pbz9htwHhMwURbpr_iEO-11" value="i" style="ellipse;whiteSpace=wrap;html=1;strokeColor=#000000;fontFamily=Times New Roman;fontSize=14;fontColor=#000000;fillColor=#FFFFFF;" vertex="1" parent="1">
                    <mxGeometry x="460" y="460" width="120" height="80" as="geometry"/>
                </mxCell>
                <mxCell id="Pbz9htwHhMwURbpr_iEO-12" value="i++" style="shape=process;whiteSpace=wrap;html=1;backgroundOutline=1;strokeColor=#000000;fontFamily=Times New Roman;fontSize=14;fontColor=#000000;fillColor=#FFFFFF;" vertex="1" parent="1">
                    <mxGeometry x="320" y="540" width="120" height="60" as="geometry"/>
                </mxCell>
                <mxCell id="Pbz9htwHhMwURbpr_iEO-13" value="" style="endArrow=none;html=1;strokeColor=#000000;strokeWidth=3;fontFamily=Times New Roman;fontSize=14;fontColor=#000000;exitX=0.5;exitY=1;exitDx=0;exitDy=0;" edge="1" parent="1" source="Pbz9htwHhMwURbpr_iEO-12">
                    <mxGeometry width="50" height="50" relative="1" as="geometry">
                        <mxPoint x="430" y="540" as="sourcePoint"/>
                        <mxPoint x="380" y="630" as="targetPoint"/>
                    </mxGeometry>
                </mxCell>
                <mxCell id="Pbz9htwHhMwURbpr_iEO-14" value="" style="endArrow=none;html=1;strokeColor=#000000;strokeWidth=3;fontFamily=Times New Roman;fontSize=14;fontColor=#000000;" edge="1" parent="1">
                    <mxGeometry width="50" height="50" relative="1" as="geometry">
                        <mxPoint x="380" y="630" as="sourcePoint"/>
                        <mxPoint x="600" y="630" as="targetPoint"/>
                    </mxGeometry>
                </mxCell>
                <mxCell id="Pbz9htwHhMwURbpr_iEO-15" value="" style="endArrow=none;html=1;strokeColor=#000000;strokeWidth=3;fontFamily=Times New Roman;fontSize=14;fontColor=#000000;" edge="1" parent="1">
                    <mxGeometry width="50" height="50" relative="1" as="geometry">
                        <mxPoint x="600" y="630" as="sourcePoint"/>
                        <mxPoint x="600" y="270" as="targetPoint"/>
                    </mxGeometry>
                </mxCell>
                <mxCell id="Pbz9htwHhMwURbpr_iEO-16" value="" style="endArrow=classic;html=1;strokeColor=#000000;strokeWidth=3;fontFamily=Times New Roman;fontSize=14;fontColor=#000000;entryX=1;entryY=0.5;entryDx=0;entryDy=0;" edge="1" parent="1" target="Pbz9htwHhMwURbpr_iEO-2">
                    <mxGeometry width="50" height="50" relative="1" as="geometry">
                        <mxPoint x="600" y="270" as="sourcePoint"/>
                        <mxPoint x="480" y="320" as="targetPoint"/>
                    </mxGeometry>
                </mxCell>
                <mxCell id="Pbz9htwHhMwURbpr_iEO-17" value="true" style="text;html=1;align=center;verticalAlign=middle;resizable=0;points=[];autosize=1;strokeColor=none;fillColor=none;fontSize=14;fontFamily=Times New Roman;fontColor=#000000;" vertex="1" parent="1">
                    <mxGeometry x="465" y="375" width="50" height="30" as="geometry"/>
                </mxCell>
                <mxCell id="Pbz9htwHhMwURbpr_iEO-18" value="false" style="text;html=1;align=center;verticalAlign=middle;resizable=0;points=[];autosize=1;strokeColor=none;fillColor=none;fontSize=14;fontFamily=Times New Roman;fontColor=#000000;" vertex="1" parent="1">
                    <mxGeometry x="325" y="455" width="50" height="30" as="geometry"/>
                </mxCell>
                <mxCell id="Pbz9htwHhMwURbpr_iEO-19" value="" style="endArrow=none;html=1;strokeColor=#000000;strokeWidth=3;fontFamily=Times New Roman;fontSize=14;fontColor=#000000;exitX=0;exitY=0.5;exitDx=0;exitDy=0;" edge="1" parent="1" source="Pbz9htwHhMwURbpr_iEO-2">
                    <mxGeometry width="50" height="50" relative="1" as="geometry">
                        <mxPoint x="380" y="300" as="sourcePoint"/>
                        <mxPoint x="220" y="270" as="targetPoint"/>
                    </mxGeometry>
                </mxCell>
                <mxCell id="Pbz9htwHhMwURbpr_iEO-20" value="false" style="text;html=1;align=center;verticalAlign=middle;resizable=0;points=[];autosize=1;strokeColor=none;fillColor=none;fontSize=14;fontFamily=Times New Roman;fontColor=#000000;" vertex="1" parent="1">
                    <mxGeometry x="245" y="240" width="50" height="30" as="geometry"/>
                </mxCell>
                <mxCell id="Pbz9htwHhMwURbpr_iEO-21" value="" style="endArrow=classic;html=1;strokeColor=#000000;strokeWidth=3;fontFamily=Times New Roman;fontSize=14;fontColor=#000000;" edge="1" parent="1">
                    <mxGeometry width="50" height="50" relative="1" as="geometry">
                        <mxPoint x="220" y="270" as="sourcePoint"/>
                        <mxPoint x="220" y="380" as="targetPoint"/>
                    </mxGeometry>
                </mxCell>
                <mxCell id="Pbz9htwHhMwURbpr_iEO-22" value="0" style="ellipse;whiteSpace=wrap;html=1;strokeColor=#000000;fontFamily=Times New Roman;fontSize=14;fontColor=#000000;fillColor=#FFFFFF;" vertex="1" parent="1">
                    <mxGeometry x="160" y="380" width="120" height="80" as="geometry"/>
                </mxCell>
            </root>
        </mxGraphModel>
    </diagram>
    <diagram id="r_aLNsyL9l_9wc3npa15" name="free_array">
        <mxGraphModel dx="832" dy="475" grid="1" gridSize="10" guides="1" tooltips="1" connect="1" arrows="1" fold="1" page="1" pageScale="1" pageWidth="827" pageHeight="1169" background="#ffffff" math="0" shadow="0">
            <root>
                <mxCell id="0"/>
                <mxCell id="1" parent="0"/>
                <mxCell id="1LHDc8_QneYfTbeJ3-yD-3" value="" style="edgeStyle=none;html=1;strokeColor=#000000;strokeWidth=3;fontFamily=Times New Roman;fontSize=14;fontColor=#000000;" edge="1" parent="1" source="1LHDc8_QneYfTbeJ3-yD-1" target="1LHDc8_QneYfTbeJ3-yD-2">
                    <mxGeometry relative="1" as="geometry"/>
                </mxCell>
                <mxCell id="1LHDc8_QneYfTbeJ3-yD-1" value="*array" style="ellipse;whiteSpace=wrap;html=1;strokeColor=#000000;fontFamily=Times New Roman;fontSize=14;fontColor=#000000;fillColor=#FFFFFF;" vertex="1" parent="1">
                    <mxGeometry x="320" y="40" width="120" height="80" as="geometry"/>
                </mxCell>
                <mxCell id="1LHDc8_QneYfTbeJ3-yD-5" value="" style="edgeStyle=none;html=1;strokeColor=#000000;strokeWidth=3;fontFamily=Times New Roman;fontSize=14;fontColor=#000000;" edge="1" parent="1" source="1LHDc8_QneYfTbeJ3-yD-2" target="1LHDc8_QneYfTbeJ3-yD-4">
                    <mxGeometry relative="1" as="geometry"/>
                </mxCell>
                <mxCell id="1LHDc8_QneYfTbeJ3-yD-2" value="NULL != array" style="rhombus;whiteSpace=wrap;html=1;strokeColor=#000000;fontFamily=Times New Roman;fontSize=14;fontColor=#000000;fillColor=#FFFFFF;" vertex="1" parent="1">
                    <mxGeometry x="315" y="140" width="130" height="80" as="geometry"/>
                </mxCell>
                <mxCell id="1LHDc8_QneYfTbeJ3-yD-4" value="free(array)" style="shape=process;whiteSpace=wrap;html=1;backgroundOutline=1;strokeColor=#000000;fontFamily=Times New Roman;fontSize=14;fontColor=#000000;fillColor=#FFFFFF;" vertex="1" parent="1">
                    <mxGeometry x="320" y="290" width="120" height="60" as="geometry"/>
                </mxCell>
                <mxCell id="1LHDc8_QneYfTbeJ3-yD-6" value="true" style="text;html=1;align=center;verticalAlign=middle;resizable=0;points=[];autosize=1;strokeColor=none;fillColor=none;fontSize=14;fontFamily=Times New Roman;fontColor=#000000;" vertex="1" parent="1">
                    <mxGeometry x="385" y="235" width="50" height="30" as="geometry"/>
                </mxCell>
            </root>
        </mxGraphModel>
    </diagram>
</mxfile>